<?xml version="1.0" encoding="iso-8859-1"?>
<!-- Generator: Adobe Illustrator 18.0.0, SVG Export Plug-In . SVG Version: 6.00 Build 0)  -->
<!DOCTYPE svg PUBLIC "-//W3C//DTD SVG 1.1//EN" "http://www.w3.org/Graphics/SVG/1.1/DTD/svg11.dtd">
<svg version="1.1" id="Capa_1" xmlns="http://www.w3.org/2000/svg" xmlns:xlink="http://www.w3.org/1999/xlink" x="0px" y="0px"
	 viewBox="0 0 490 490" style="enable-background:new 0 0 490 490;" xml:space="preserve">
<g>
	<path d="M287.928,21.898c-3.381-1.697-7.431-1.34-10.465,0.922c-1.215,0.905-120.913,90.098-192.106,138.423H10.003
		C4.479,161.243,0,165.723,0,171.247V318.75c0,5.524,4.479,10.004,10.003,10.004h75.348c34.678,23.545,65.119,46.241,94.582,68.208
		c30.371,22.645,61.776,46.061,97.907,70.485c1.685,1.14,3.641,1.717,5.603,1.717c1.607,0,3.219-0.387,4.691-1.169
		c3.269-1.735,5.311-5.133,5.311-8.835V30.84C293.446,27.056,291.31,23.596,287.928,21.898z M273.439,440.187
		c-29.372-20.362-143.301-105.307-179.417-129.725c-1.654-1.118-3.605-1.716-5.602-1.716H20.007V181.25h68.419
		c1.997,0,3.948-0.598,5.602-1.717C149.924,141.746,237.661,77.2,273.439,50.72V440.187z"/>
	<path d="M413.975,168.975c-41.988,0-76.025,34.038-76.025,76.025s34.038,76.025,76.025,76.025S490,286.987,490,245
		S455.962,168.975,413.975,168.975z M413.975,300.353c-30.522,0-55.353-24.832-55.353-55.354c0-13.352,4.752-25.615,12.654-35.186
		l63.879,86.32C428.626,298.848,421.474,300.353,413.975,300.353z M451.957,285.209l-65.341-88.299
		c8.076-4.612,17.411-7.264,27.359-7.264c30.522,0,55.353,24.83,55.353,55.352C469.328,260.825,462.642,275.11,451.957,285.209z"/>
</g>
<g>
</g>
<g>
</g>
<g>
</g>
<g>
</g>
<g>
</g>
<g>
</g>
<g>
</g>
<g>
</g>
<g>
</g>
<g>
</g>
<g>
</g>
<g>
</g>
<g>
</g>
<g>
</g>
<g>
</g>
</svg>
