<?xml version="1.0" encoding="iso-8859-1"?>
<!-- Generator: Adobe Illustrator 18.0.0, SVG Export Plug-In . SVG Version: 6.00 Build 0)  -->
<!DOCTYPE svg PUBLIC "-//W3C//DTD SVG 1.1//EN" "http://www.w3.org/Graphics/SVG/1.1/DTD/svg11.dtd">
<svg version="1.1" id="Capa_1" xmlns="http://www.w3.org/2000/svg" xmlns:xlink="http://www.w3.org/1999/xlink" x="0px" y="0px"
	 viewBox="0 0 490 490" style="enable-background:new 0 0 490 490;" xml:space="preserve">
<g>
	<g>
		<path d="M269.395,458.16c-1.962,0-3.917-0.576-5.602-1.716c-34.288-23.179-64.087-45.397-92.905-66.883
			c-27.906-20.807-56.737-42.303-89.57-64.6H10c-5.523,0-10-4.478-10-10V175.038c0-5.522,4.477-10,10-10h71.322
			c67.547-45.861,180.942-130.357,182.094-131.216c3.033-2.262,7.082-2.616,10.462-0.922c3.381,1.697,5.516,5.156,5.516,8.938
			V448.16c0,3.699-2.042,7.097-5.31,8.832C272.612,457.774,271.001,458.16,269.395,458.16z M20,304.962h64.387
			c1.996,0,3.947,0.598,5.601,1.716c34.269,23.168,64.052,45.374,92.855,66.85c24.157,18.012,49.012,36.543,76.551,55.659V61.711
			C224.952,87.197,142.608,147.75,89.991,183.323c-1.653,1.118-3.604,1.716-5.601,1.716H20V304.962z"/>
	</g>
	<g>
		<g>
			<path d="M330.78,275.134c-4.097-3.728-3.628-10.063,0.095-14.142c4.642-5.086,6.719-9.953,6.719-15.989
				c0-6.035-2.388-11.715-6.723-15.992c-3.932-3.879-3.974-10.21-0.095-14.142c3.878-3.931,10.211-3.974,14.142-0.095
				c8.174,8.064,12.676,18.8,12.676,30.229s-4.245,22.429-12.672,30.226C340.767,279.074,334.765,278.759,330.78,275.134z"/>
		</g>
		<g>
			<path d="M384.711,324.328c-2.58,0-5.159-0.992-7.116-2.974c-3.88-3.931-3.84-10.262,0.091-14.143
				c16.837-16.624,26.109-38.717,26.109-62.209c0-23.494-9.273-45.586-26.111-62.207c-3.931-3.88-3.972-10.212-0.092-14.143
				c3.882-3.931,10.211-3.971,14.143-0.092c20.675,20.409,32.06,47.557,32.06,76.441c0,28.883-11.385,56.03-32.058,76.441
				C389.788,323.368,387.249,324.328,384.711,324.328z"/>
		</g>
		<g>
			<path d="M431.523,370.542c-2.58,0-5.16-0.993-7.116-2.975c-3.88-3.93-3.84-10.262,0.091-14.142
				C453.84,324.456,470,285.951,470,245.003c0-40.947-16.16-79.454-45.505-108.427c-3.93-3.881-3.97-10.212-0.09-14.143
				c3.88-3.93,10.212-3.97,14.142-0.09C471.727,155.104,490,198.665,490,245.003c0,46.339-18.273,89.898-51.451,122.655
				C436.601,369.582,434.061,370.542,431.523,370.542z"/>
		</g>
	</g>
</g>
<g>
</g>
<g>
</g>
<g>
</g>
<g>
</g>
<g>
</g>
<g>
</g>
<g>
</g>
<g>
</g>
<g>
</g>
<g>
</g>
<g>
</g>
<g>
</g>
<g>
</g>
<g>
</g>
<g>
</g>
</svg>
